<svg width="16" height="15" viewBox="0 0 16 15" fill="none" xmlns="http://www.w3.org/2000/svg">
<path d="M16 14.2167C15.9605 14.219 15.9385 14.2213 15.9163 14.2213C14.3209 14.2215 12.7255 14.2213 11.1301 14.2222C11.0848 14.2222 11.0548 14.21 11.0261 14.1731C10.3027 13.2411 9.57789 12.3101 8.85332 11.3791C8.31719 10.6902 7.78092 10.0013 7.24466 9.31248C7.22941 9.29294 7.21326 9.27408 7.19484 9.25162C7.17855 9.26858 7.16427 9.28256 7.15102 9.29742C5.95208 10.6437 4.7532 11.99 3.55433 13.3363C3.30455 13.6168 3.05415 13.8966 2.80547 14.1781C2.77704 14.2102 2.74772 14.2223 2.70487 14.2222C1.93248 14.2211 1.16003 14.2214 0.387642 14.2214H0.33741C0.332373 14.2146 0.330441 14.2129 0.32982 14.2109C0.329199 14.2089 0.32913 14.2058 0.330303 14.2045C2.23436 12.0633 4.13848 9.92221 6.04716 7.77604C4.03402 5.189 2.02156 2.60271 0 0.00474996C0.038571 0.00332519 0.064515 0.0015612 0.090528 0.0015612C0.603198 0.0014255 1.1158 0.0014255 1.62847 0.0014255C2.74337 0.0014255 3.85834 0.00196827 4.97325 7.36823e-07C5.03742 -0.000134955 5.07661 0.0184548 5.11559 0.0691358C6.24533 1.54011 7.37693 3.00979 8.50818 4.4796C8.52323 4.49914 8.53903 4.51807 8.55821 4.54195C8.57905 4.51943 8.59609 4.50158 8.61244 4.4832C9.70209 3.25905 10.7917 2.03491 11.8813 0.810693C12.1067 0.557356 12.3327 0.304426 12.5572 0.0503425C12.5862 0.017505 12.6152 0.000272121 12.6621 0.000339967C13.4345 0.00183258 14.207 0.00135766 14.9794 0.00149335C14.9975 0.00149335 15.0156 0.00305381 15.0326 0.00386796C15.0346 0.0083458 15.0358 0.0102455 15.0363 0.0123487C15.0368 0.0143841 15.0372 0.0168944 15.0364 0.0185905C15.0345 0.0225935 15.0323 0.0267321 15.0293 0.0300565C13.2526 2.02602 11.4759 4.02185 9.69429 6.0231C10.2198 6.70597 10.7448 7.38816 11.2698 8.07028C11.7952 8.75295 12.3207 9.43562 12.8462 10.1183C13.3703 10.7991 13.8947 11.4798 14.4184 12.1609C14.9426 12.8426 15.4678 13.5235 16 14.2167ZM2.86502 1.36988C2.88593 1.39797 2.9 1.41751 2.91477 1.4365C3.37962 2.03402 3.84447 2.63148 4.30946 3.22893C5.08447 4.22457 5.85955 5.22014 6.63456 6.21585C7.26853 7.03034 7.90236 7.8449 8.53627 8.65939C9.24559 9.57077 9.95491 10.4821 10.6642 11.3935C11.0118 11.8402 11.3597 12.2868 11.7066 12.734C11.7292 12.7632 11.7519 12.7779 11.7917 12.7778C12.2078 12.7762 12.6239 12.7768 13.04 12.7766C13.0564 12.7766 13.0729 12.7728 13.0959 12.77C13.0725 12.7389 13.0551 12.7152 13.0372 12.6919C12.3552 11.8055 11.6731 10.9191 10.991 10.0329C9.75012 8.42057 8.50922 6.80842 7.26832 5.19612C6.29922 3.93697 5.32997 2.67788 4.3619 1.41791C4.33244 1.37951 4.30194 1.36438 4.2533 1.36459C3.81653 1.36622 3.37969 1.36547 2.94292 1.36567C2.92084 1.36567 2.8989 1.36798 2.86502 1.36988Z" fill="white"/>
</svg>
